<svg version="1" xmlns="http://www.w3.org/2000/svg" width="1280" height="1280" viewBox="0 0 960.000000 960.000000"><path d="M412.3 44.5c-1.7 1.3-1.7 1.5.2 3.4 1.8 1.7 13.4 8.4 36.5 20.8 4.1 2.2 9.3 5 11.5 6.3 10.1 5.6 14.5 8 20.8 11.4 3.7 2 8.4 4.6 10.5 5.8 2 1.1 8.9 4.9 15.2 8.3 6.3 3.4 13.3 7.3 15.5 8.5 2.2 1.3 5.8 3.2 8 4.3 2.2 1.1 4.2 2.2 4.5 2.6.3.3 2.5 1.7 5 2.9 6.2 3.3 14.7 7.9 19.5 10.5 5.7 3.2 20.2 11.1 25.5 13.8 2.5 1.3 4.7 2.6 5 2.9.3.3 2.3 1.4 4.5 2.6 7.9 4.1 18.1 9.8 25.6 14 4.2 2.4 8.1 4.4 8.7 4.4.6 0 1.2.3 1.4.7.2.5 1.9 1.6 3.8 2.7 18.1 9.6 22.7 12 23.7 12.9.7.5 3.6 2.1 6.5 3.7 7.7 4 16.8 9 33.8 18.5 4.1 2.3 10.2 5.7 13.5 7.5 10.7 5.9 19.6 10.9 23.6 13.2 1.3.7 2.9 1.9 3.7 2.5.7.7 1.8 1.3 2.3 1.3 1.2 0 14.9 8.8 14.9 9.6 0 .7-2.2 2.7-7 6.4-1.8 1.4-3.8 2.9-4.4 3.5-.6.5-2.9 2.3-5.1 4-4.4 3.3-7.1 5.4-8.9 7.1-.6.6-1.8 1.5-2.7 2-1.9 1-7.7 5.6-12.3 9.6-1.7 1.5-3.7 2.8-4.3 2.8-.7 0-1.3.3-1.3.8 0 .4-2.7 2.8-6.1 5.2-3.3 2.5-6.6 5-7.2 5.5-1 .9-9.8 7.7-13.2 10.2-.6.5-3.1 2.5-5.7 4.5-2.5 2.1-5.1 3.8-5.7 3.8-.6 0-1.1.4-1.1.8 0 .5-2.1 2.4-4.7 4.2-2.7 1.9-5.2 4-5.6 4.7-.4.7-1.4 1.3-2.2 1.3-.7 0-1.5.3-1.7.7-.5 1.3-8.6 7.3-9.8 7.3-.6 0-.8.4-.5 1 .3.5.2 1-.3 1-1.1 0-14.6 10-15 11.2-.2.4-.8.8-1.3.8-.9 0-2.2 1-8.2 6.2-1.8 1.5-3.6 2.8-4 2.8-.5 0-1.5.7-2.3 1.5-.8.8-6.8 5.4-13.2 10.2-6.4 4.8-11.9 9-12.2 9.3-.3.4-2.3 1.9-4.5 3.5-2.2 1.7-4.2 3.2-4.5 3.5-.3.4-2.7 2.2-5.5 4.1-2.7 1.8-5.2 3.6-5.5 3.9-.3.3-3.9 3.1-8 6.3-4.1 3.1-9 6.9-10.9 8.4-1.8 1.6-4 3.2-4.8 3.6-1.2.8-26.8 20-29.8 22.4-.5.5-4 3.1-7.7 5.8-3.8 2.8-6.8 5.3-6.8 5.7 0 .5-.7.8-1.5.8s-1.5.4-1.5 1c0 .5-.6 1-1.4 1-.8 0-1.6.4-1.8.8-.1.5-9.5 7.8-20.8 16.2-11.3 8.4-20.8 15.7-21.2 16.4-.4.6-.8.8-.8.4s-3.1 1.6-6.8 4.5c-3.8 2.8-7.9 6-9.3 7-14.1 10.2-20.3 14.7-20.4 14.7-.2 0-.2.2-.9-17.5-.7-18.3-1.4-39.6-2.2-70-.3-12.7-.7-30.2-1-39-.2-8.8-.6-25-.9-36-1.1-46.5-1.4-54.7-1.9-55.2-.3-.3-.1-1.4.5-2.4.5-1.1.6-1.9.2-1.9-.4 0-.9-7.3-1-16.3-.4-31.6-.4-32.7-2.2-31.8-.9.4-2.7.6-4.1.4-3-.4-.5-.4-23.5.3-10.4.3-20.7.6-22.7.7-2.1 0-3.8.4-3.8.8 0 1.1-.5 1 13.5 1.3 6.1.1 11.6.5 12.3.9.6.5 1.2.5 1.2 0 0-.8 1.5-.8 15.5.1 9.8.6 9.2.5 7.5 1.6-.9.6-12.6.9-31.5.6l-30.1-.4-.1 2.1c-.1 1.2-.4 7.6-.7 14.2-1.2 25-1.7 35.4-2.1 49-.2 7.7-.5 14-.5 14-.1 0-.3 5.6-.6 12.5-.2 6.9-.6 18.1-.9 25-.3 6.9-.7 18.1-.9 25-.3 6.9-.6 12.5-.6 12.5s-.2 5.6-.5 12.5c-1 31.5-1.6 45.3-2 55.5-.3 6-.8 16.4-1 23-.2 6.6-.7 17.6-1 24.5-.2 6.9-.7 18.8-1 26.5-.3 7.7-.8 19.6-1 26.5-.3 6.9-.7 18.6-1 26-.6 15.8-1.2 33.1-2.1 55.5-.4 8.8-.7 20.8-.8 26.7 0 5.8-.3 10.5-.6 10.3-.3-.2-.5 4-.6 9.3 0 8.5-.9 32.7-2 58.7-.1 4.4-.5 15-.8 23.5-.3 8.5-.8 20.7-1.1 27-.3 6.3-.7 18-1 26-.2 8-.5 14.5-.6 14.5 0 0-.2 2.5-.3 5.5l-.1 5.6 20 .1c11 0 35.6.4 54.8.8l34.7.7.1-6.4c.1-6.6.2-9.1 1.3-27.3.4-6.1.9-15.1 1.1-20 .2-5 .6-14.4 1-21 .3-6.6.7-15.7.9-20.2.2-4.4.7-8.6 1-9.2.4-.6.2-1.1-.4-1.1-.6 0-.8-.5-.5-1 .4-.6.8-5.4 1-10.8.2-5.3.4-9.7.5-9.7.1 0 .6-9.7 1.4-27 .7-14.1 2.3-26.6 3.5-27.8 1-1 2.3.2 9.2 9.3 2.7 3.6 5.2 6.9 5.7 7.5.4.5 1.9 2.6 3.2 4.5 1.4 1.9 2.8 3.7 3.1 4 .3.3 9.5 12.4 20.5 27 10.9 14.6 20.4 27 20.9 27.6.6.7 1.9 2.4 3 4 1.1 1.5 3.8 5.1 6 8 2.2 2.9 4.7 6.2 5.5 7.4.8 1.2 2 2.8 2.5 3.4.6.6 5.7 7.4 11.5 15.1 5.7 7.7 10.8 14.4 11.3 15 3.7 4.7 39.2 51.5 40.2 53.2 2.4 3.7 6.3 7.4 8.1 7.5 1 0 4.8-.3 8.4-.6 3.6-.4 8.5-.9 11-1.1 6.9-.7 13.9-1.4 17.9-1.9 2-.3 6.5-.8 10.1-1.1 3.6-.3 10.1-1 14.5-1.5 7.3-.9 16.5-1.8 24-2.5 1.7-.2 3-.4 3-.4 0-.2 4-.7 13-1.6 12.2-1.2 22.8-2.4 26-2.9 1.1-.2 1.9-1 1.7-1.7-.3-1.2-9.7-14.2-12.7-17.5-3.1-3.4-10.2-12-11.5-13.8-1.4-2.1-5.4-6.7-7.7-9.2-.7-.7-1.3-1.7-1.3-2.2 0-.6-.4-1.2-.8-1.4-.5-.2-3.1-3-5.8-6.4-2.7-3.3-8.7-10.7-13.4-16.5-4.7-5.7-9.2-11.2-10-12.3-.8-1-1.9-2.3-2.5-3-6.2-7-10.5-12.6-10.5-13.5 0-.6-.4-1.1-.9-1.1s-2.4-2-4.3-4.4c-3.3-4.4-19.3-24.1-21.3-26.2-.5-.7-2.6-3.1-4.5-5.5-3-3.7-13.1-16.1-15.9-19.5-.5-.7-4.5-5.4-8.7-10.5-4.3-5.2-10.1-12.2-12.8-15.5-2.8-3.4-6.7-8.1-8.7-10.5-2.1-2.4-7.6-9.1-12.4-14.9-4.8-5.8-9.7-11.6-10.8-13-6.2-7.3-8.5-10-11.5-13.8-1.9-2.2-4.4-5.2-5.5-6.5-1.2-1.3-4-4.5-6.2-7.1-2.2-2.6-4.8-5.6-5.7-6.7-1-1-1.8-2.4-1.8-2.9 0-.6-.4-1-.8-1-.5 0-4.2-4.1-8.3-9.1-4.1-5-8.6-10.5-10-12.2-1.5-1.7-3.1-4.5-3.7-6.4-1-3.1-.8-3.4 3-6.5 2.2-1.8 5.2-4.3 6.7-5.5 2.4-2 9.3-7.5 18.6-14.8 2.1-1.7 4.3-3.5 4.9-4 1-.9 8.6-6.9 11.1-8.7.6-.4 2.2-1.8 3.7-3.1s3.9-3.2 5.3-4.3c1.5-1 3.7-2.8 4.9-3.9 1.2-1.1 3.7-3.1 5.6-4.5 1.8-1.4 4.1-3.2 5-4 3.8-3.2 17-13.7 24.4-19.5 2.1-1.7 4.4-3.5 5-4 .6-.6 2.9-2.4 5.1-4 2.2-1.7 5.1-4 6.5-5.2 2.3-2 6.1-5.1 8.5-7.1.6-.4 2.8-2.1 5-3.7 2.1-1.7 5.1-4 6.5-5.2 1.4-1.3 12.2-10 24-19.4 11.8-9.3 22.4-17.8 23.5-18.7 1.1-.9 4-3.2 6.5-5.1 2.5-1.9 4.7-3.7 5-4 .3-.4 2.5-2.2 5-4.1 2.5-1.9 4.7-3.7 5-4 .3-.3 2.5-2.1 5-4s4.7-3.7 5-4c.3-.3 2.8-2.4 5.5-4.5 2.8-2.2 5.2-4.2 5.5-4.5.3-.3 4.8-3.9 10-7.9 5.2-4.1 9.7-7.8 9.8-8.3.2-.4 1-.8 1.7-.8s1.5-.4 1.7-.9c.2-.7 12.3-10.7 27.4-22.6 2-1.7 8-6.5 13.3-10.9 5.2-4.3 10.3-8.3 11.3-9 1-.6 1.8-1.4 1.8-1.9 0-.8-5.5-9-14.5-21.5-2.5-3.4-4.5-6.7-4.5-7.1 0-.5-.7-1.1-1.5-1.5-.8-.3-1.5-1.2-1.5-2s-.4-1.6-.8-1.8c-1-.4-11.5-15.4-14.6-20.9l-2.4-4.2 5.8-4.3c5.7-4.2 8.7-8.3 8.4-11.4-.1-.8-.2-2.2-.3-3.1-.1-2.1-5.9-8.2-9.8-10.5-1.8-1-3.3-2.2-3.3-2.6 0-.4-.4-.8-1-.8-.5 0-3.6-1.7-6.7-3.7-3.2-2.1-6.1-3.6-6.5-3.5-.5.1-.8-.3-.8-.8 0-.6-.4-1-.9-1s-3.8-1.7-7.3-3.9c-3.5-2.1-8.6-5-11.3-6.5-2.8-1.5-6.6-3.7-8.5-4.8-10-5.9-13.7-8-16.2-9.1-1.6-.6-2.8-1.5-2.8-1.9 0-.4-.4-.8-1-.8-.5 0-5.4-2.7-10.8-6-5.5-3.3-10.5-6-11.1-6-.6 0-1.1-.4-1.1-.8 0-.5-1.6-1.4-3.5-2.2-1.9-.8-3.5-1.7-3.5-2.2 0-.4-.4-.8-.9-.8-.9 0-14.5-7.7-21.6-12.2-1.6-1-4.2-2.4-5.7-3-1.6-.7-2.8-1.6-2.8-2 0-.4-.4-.8-.9-.8-.9 0-13.1-6.9-14.1-8-.3-.3-3-1.8-6-3.4-3-1.6-6.6-3.8-7.9-4.8-1.3-1-2.7-1.8-3.2-1.8-.4 0-3.7-1.8-7.1-4.1-5.6-3.6-5.9-4-2.9-3.4 5.3 1.1 5.5 1.2 7.4 2 1 .4 2.6.9 3.5.9 1.7.2 9.4 2.3 12.2 3.4.8.3 2 .7 2.5.7.6.1 1.7.5 2.5.8.8.3 7.2 2.4 14.2 4.6 13.5 4.4 20.1 6.8 28.3 10.5 2.7 1.3 5.2 2.4 5.5 2.4 1.9.2 29.8 15.4 43.9 23.9 5.7 3.5 10.6 6.3 11 6.3 2.1 0 38.8 29.7 50 40.4 3.5 3.4 8 7.8 10 10 2 2.1 5.2 5.5 7.1 7.5 2 2 5.8 6.3 8.5 9.6 2.8 3.3 5.9 6.9 7 8 1.1 1.1 3.6 4.2 5.4 7 1.9 2.7 4 5.3 4.5 5.7.7.5.7.8.1.8s-.6.3.1.8c1 .7 14.4 20 14.4 20.8 0 .2 1.5 2.8 3.4 5.7 7.9 12.3 17.1 30.9 23.3 46.7 2.4 6.3 4.8 12.4 5.3 13.5 1.2 2.8 6.6 19.8 8.6 27 1.7 6.4 8.3 38 8.9 43 2.2 16.5 2.6 83.5.5 83.5-.3 0-.5 1.5-.6 3.2-.1 3-1.1 10.3-1.4 10.3-.1 0-.3 1.1-.5 2.5-.5 3.8-3.3 17.1-4.4 20.8-.5 1.8-1 3.5-1 3.7-.1.3-.1.6-.2.7-.3 1.2-1.1 4.7-1.4 6.5-.2 1.2-.6 2.7-1 3.2-.3.6-.8 1.9-1 2.9-1.3 6.8-10.8 33.4-16.2 45.1-7.9 17.3-9.8 21.1-10.5 21.1-.4 0-.8.6-.8 1.2 0 .7-2.3 5.1-5 9.7-2.8 4.6-5 8.6-5 8.7 0 .2-2.5 4-5.5 8.5s-5.5 8.5-5.5 8.9c0 .5-.4 1-.8 1.2-.4.1-3.4 3.9-6.7 8.3-3.3 4.4-6.2 8.2-6.5 8.5-.3.3-2.5 3-5 6-8.6 10.6-27.6 30.1-38.9 40-3.5 3-6.9 6-7.5 6.6-.6.6-5.1 4.1-10.1 7.8-4.9 3.7-9.7 7.2-10.5 7.9-5.5 4.3-33.1 22-39.7 25.4l-3.3 1.7-4.3-5c-7.8-8.8-20.1-22.9-24.6-28.2-2.4-2.9-4.6-5-5-4.7-.3.3-.1.9.5 1.3.5.4 3.9 4.3 7.4 8.7 3.5 4.4 6.7 8.2 7 8.5.3.3 5.3 6.3 11 13.5 5.8 7.1 10.7 13.2 11 13.5.4.4 9.5 11.5 15 18.4.8 1 2 2.3 2.5 3 1.1 1.3 5.2 6.1 11 13.1 6.9 8.3 14.3 16 14.9 15.4 1.1-1.1-5-10.2-10.9-16.4-2-2.1-11.6-13.1-15.1-17.3-1-1.3-2.9-3.6-4.1-5-1.3-1.5-2.3-3-2.3-3.4 0-1 7.2-5.8 8.7-5.8.7 0 1.3-.4 1.3-.8 0-.7 3.3-2.8 11.1-6.9 1.5-.7 3.2-2 3.9-2.8.7-.8 2.1-1.5 3.1-1.5 1.1 0 1.9-.4 1.9-.8 0-.5 1.9-1.9 4.3-3.2 3.6-2 31.3-22.2 32.7-23.9.3-.3 3.9-3.3 8-6.6 10.5-8.4 38.8-37.3 48-49 1.7-2.2 3.7-4.7 4.4-5.6.7-.9 3.3-4.5 5.6-8 2.4-3.5 4.6-6.6 5-6.9 1-.8 16.5-25.2 19.1-30 1.3-2.5 2.6-4.7 2.9-5 2-2 14.9-28.4 15.6-32 .2-.8 1.7-4.9 3.5-9 1.7-4.1 3.9-9.8 4.9-12.5 1-2.8 2.4-6.4 3.1-8 1.5-3.7 1.3-2.8 2.8-10 .7-3.3 2-7.4 2.9-9 1.5-3 2.2-5.9 2.5-10.3 0-1.2.5-2.2 1-2.2s.7-.7.4-1.5c-.4-.8-.2-1.7.4-2 .5-.4.7-1 .4-1.5-.3-.5-.1-2.7.4-4.7.5-2.1 1.2-5.4 1.5-7.3.3-1.9.7-4.4 1-5.5.2-1.1.7-4.3 1-7 .4-2.8 1-6.5 1.2-8.3 1.1-6.8 1.3-15.5 1.3-40.7 0-33.7-.4-40.7-3.5-57.8-.9-5.1-1.8-10.1-1.9-11.2-.6-4.2-1.6-9.1-2.1-10.8-.3-1.1-.8-2.9-.9-4-.2-1.2-.8-3.8-1.4-5.7-.6-1.9-2.2-7.6-3.6-12.5-1.5-5-3.1-10.1-3.7-11.5-.7-1.4-1.2-2.7-1.3-3-.6-2.6-3.4-9.8-6.1-15.8-1.9-4.1-3.4-8-3.4-8.9 0-1.8-10.3-23-15.5-31.8-1.9-3.3-4.3-7.7-5.2-9.8-1-2-2.1-3.7-2.5-3.7-.5 0-.8-.5-.8-1 0-.6-.5-1.6-1-2.3-.6-.7-3.7-5.3-6.9-10.3-3.3-5.1-6.3-9.3-6.8-9.5-.5-.2-2.1-2.5-3.6-5.1-2.9-5-11.8-16.3-18.7-23.8-2.3-2.5-7.9-8.5-12.4-13.4-12.4-13.7-16.5-17.6-24.6-23.7-1.9-1.5-4.5-3.5-5.7-4.5-6.6-5.7-25.4-20.8-29.3-23.4-1.9-1.3-4.2-3.1-5-4-.8-.8-2.2-1.6-3.1-1.8-.9-.1-7.7-3.9-15-8.4-14.7-9-33.6-18.9-44.4-23.3-3.8-1.6-7.2-3.2-7.5-3.6-.5-.6-7.1-3-9.5-3.5-.5-.1-4.4-1.5-8.5-3.2-4.1-1.6-9.1-3.3-11-3.7-1.9-.4-4.4-1.2-5.5-1.9-1.1-.6-4-1.6-6.5-2.3-2.5-.6-6.3-1.6-8.5-2.3-2.2-.6-4.7-1.2-5.5-1.4-.8-.2-4-1.1-7.1-2-3.1-.9-6.9-1.8-8.5-2.1-2.5-.4-5.5-1-8.9-1.9-.5-.1-3.7-.8-7-1.5s-7.1-1.5-8.5-1.8c-1.4-.3-3.8-.7-5.5-.8-1.6-.1-5.2-.5-8-.8-5.2-.7-11.2-1.3-23-2.3-3.8-.4-7.9-.7-9-.9-3.1-.3-18.2-7.9-19.7-10-.4-.6-.8-.6-.8-.1s-.7.3-1.5-.4c-1.4-1.2-26.5-16-27.1-16-.2 0-3.3-1.8-6.9-4-3.6-2.2-6.7-4-6.9-4-.2 0-3.3-1.7-6.7-3.8-9.2-5.5-16.8-9.6-21.8-11.5-5.7-2.3-14.4-2.9-16.8-1.2z"/><path d="M409.4 86.1c.3 20 .8 48.5 1.1 63.4.4 14.8.7 33.8.9 42 .1 8.3.5 15.6.9 16.2.4.6.4 1.4-.1 1.7-.4.2-.7 2.4-.5 4.8.2 2.4.5 14.2.8 26.3.2 12.1.7 31 1 42 .3 11 .6 20.6.5 21.2 0 .7 0 1.9-.1 2.5 0 1.4.7 32.4 1.6 65.8.3 10.7.7 27.8 1 38 1.4 63.8 2 82.9 2.4 83.8.1.2 13.5-9.7 17.6-13.1.9-.7 37-28 44.9-34 1.6-1.2 6.2-4.7 10.2-7.7 4-3 8.5-6.4 10-7.5 1.6-1.1 4.2-3.1 5.9-4.5 1.6-1.4 7.5-5.9 13-10s10.2-7.8 10.3-8.3c.2-.4 1-.7 1.8-.7s1.4-.4 1.4-.8c0-.5 2.6-2.6 5.7-4.8 3.2-2.1 6.5-4.6 7.4-5.4.9-.8 2.7-2.3 4-3.3 1.3-1 5.3-4 8.9-6.7 8.5-6.5 7.6-5.8 14.5-10.9 3.3-2.5 6.2-4.7 6.5-5 .3-.3 1.2-1.1 2.1-1.6 2.2-1.3 18-13.6 19.7-15.2.7-.7 1.7-1.3 2.1-1.3.4 0 1.6-.8 2.7-1.8 1-1 5.5-4.5 9.9-7.7 4.4-3.3 8.2-6.2 8.5-6.5.3-.3 5-3.9 10.5-8 12-9 11.3-8.4 15.1-11.5 1.8-1.4 3.7-2.5 4.3-2.5.6 0 1.1-.4 1.1-.8s3.9-3.7 8.8-7.2c4.8-3.6 9.9-7.5 11.4-8.8 1.4-1.3 3-2.3 3.4-2.2.4.1 1-.3 1.3-.8.3-.6 4.2-3.7 8.6-7.1 4.4-3.3 8.5-6.4 9-6.8.6-.5 5.1-4 10-7.8 17-13 26-19.9 26.5-20.5.3-.3 3.4-2.7 7-5.5 10.1-7.7 10-7.7 8.7-8.9-.7-.6-3.7-2.4-6.7-4-7.4-3.8-11.4-6-12-6.6-.3-.3-2.5-1.5-5-2.8-9.2-4.8-41.3-22.4-44-24.3-.8-.5-2.7-1.5-4.2-2.2-1.6-.6-2.8-1.5-2.8-2 0-.4-.4-.6-.9-.2-.5.3-1.5 0-2.3-.7-.7-.7-5.1-3.3-9.8-5.7-4.7-2.4-9.2-4.9-10-5.6-.8-.7-3.1-2-5-2.9-1.9-.8-7.1-3.6-11.5-6-4.4-2.5-11.1-6.1-14.8-8.1-3.8-2-8.5-4.6-10.6-5.9-2-1.3-5.4-3.2-7.6-4.3-4.1-2-11.6-6.1-17-9.3-3.2-1.9-9.2-5.1-24.5-13.3-5.2-2.7-10.2-5.6-11.1-6.4-.8-.7-2.3-1.3-3.1-1.3-.9 0-1.8-.4-2-.8-.1-.5-4.6-3.1-9.8-5.9-5.2-2.8-14.8-8.1-21.3-11.7-6.5-3.6-11.9-6.6-12.1-6.6-.3 0-3.5-1.7-7.3-3.9-11-6.2-16.4-9.2-22.3-12.4-3-1.6-9.3-5.1-14-7.7-4.7-2.6-11.9-6.5-16-8.7-4.1-2.2-9.3-5.1-11.5-6.3-2.2-1.3-6.9-3.9-10.5-5.8-3.6-1.9-7.3-4.1-8.2-5-1-.8-1.8-1.2-1.8-.7 0 .4-.7.2-1.6-.6-1.4-1.1-1.5 2.1-1 35.2zm114.1 76.1c7 3.6 9.6 10.9 6.2 17.8-1.4 3-6.7 8-8.3 8-.7 0-1.5.7-1.8 1.6-.3.8-1 1.2-1.6.9-.5-.3-1-.2-1 .2 0 .8-8.4 4.8-10 4.8-.3 0-.9.3-1.5.6-2.5 1.6-11.1-.9-14.5-4.1-2.5-2.3-2.9-3.4-2.6-7.2.9-14.5 23.1-28.7 35.1-22.6zm46.4 13.3c1.4.2 2.7.8 3 1.3.3.5 1.4 1.1 2.4 1.5 1.8.7 3.7 4.6 4.1 8.7.4 4.9-5.3 11.2-15.9 17.1-6.8 3.8-7.1 3.9-14.4 4.4-8.2.5-14-3.4-14.9-10.3-.3-2.3 3.3-11.2 4.6-11.2.4 0 2.2-1.4 4.1-3 1.8-1.7 3.7-3 4.2-3s1.7-1 2.9-2.2c1.1-1.2 2-1.8 2-1.2 0 .5.4.4.8-.2 1.9-2.8 8.8-3.6 17.1-1.9zm-90.6 19.7c2.9 1.2 7.4 3.5 10 5.1 2.6 1.6 7 3.8 9.7 4.8 4.6 1.7 6.5 2.2 12.8 3.4 1.5.3 3.8.8 5.2 1.2 4.2 1.1 4.4 1.1 7.9 1.7 5.1 1 10.7 4.3 13.4 7.8 2.4 3.3 4.9 9.3 4.1 10-.2.2-.5 1.3-.7 2.4-.7 3.3-1.9 5.7-6.7 12.9-4.9 7.4-5.9 9.4-6.6 13.5-.5 2.7-2 11.3-2.9 16.9-2.2 12.9-10.7 17-23.5 11.4-15.3-6.7-40.2-32.8-43.1-45.2-1-4.3-1.2-31.8-.3-36.8.4-2 2.2-5.1 4.4-7.4 4.4-4.7 8.3-5.1 16.3-1.7zm112.8 18.3c6.4 3.4 8.9 11.7 4.9 16.8-2.3 2.9-13.8 10.6-18.8 12.6-5.3 2.2-13.7 1.5-19.2-1.5-5.2-2.9-7.2-5.8-6.4-10 .7-3.9 4.9-10.7 8.1-13 3.3-2.4 11-5.4 15.6-6.1 1.7-.3 3.3-.6 3.5-.8.8-.7 9.8.8 12.3 2zm-15.7 42.8c3.7 3.6 4 10.8.7 14.4-2.7 3-11.4 9.3-12.8 9.3-.4 0-2.1.8-3.8 1.7-1.7.9-5.5 1.6-8.6 1.7-4.5.1-6.4-.4-10.5-2.9-6.3-3.9-8.2-7.5-6.4-12.3.7-1.9 2.4-4.6 3.9-5.9 5.3-4.9 19.5-10.7 23.9-9.8 1.2.2 2.4 0 2.7-.5.6-1 8.9 2.3 10.9 4.3zM399.5 105.7c-1.1.3-7.6 2.1-14.5 4s-13.2 3.6-14 3.8c-4.5 1.3-22.9 7.7-25.8 9.1-1.9.9-4 1.7-4.6 1.8-2.9.5-7.1 2.2-18.6 7.3-3 1.3-17.7 8.6-26.2 13-1.5.8-3 1.8-3.3 2.3-.3.5-2.5 1.8-4.8 2.9-4.9 2.4-8.3 4.3-15.7 9.1-3 2-6.7 4.2-8.2 4.9-5.6 2.8-45.6 34.5-53 41.9-9 9.2-20.1 20.8-25.3 26.7-3.3 3.7-7.9 8.8-10.2 11.3-2.4 2.4-4 4.8-3.8 5.2.3.4-.2 1-1 1.3-.7.3-2.1 2-3 3.7-1.4 2.8-11.7 17.4-14.5 20.7-.5.7-1 1.5-1 1.8 0 .3-1.8 3.3-4 6.5s-4 6.4-4 6.9c0 .6-.4 1.1-.8 1.1-.9 0-12.1 21.5-11.2 21.5.3 0-.5 1.1-1.7 2.4-1.3 1.4-2.8 4-3.4 6-.6 2-2.6 7.2-4.5 11.6-5.4 13.1-9.3 23.5-9.8 25.8-.3 1.2-1.4 5.1-2.6 8.7-1.2 3.6-2.4 7.2-2.6 8-.1.8-1.4 5.5-2.8 10.5-1.4 4.9-2.3 9.1-2.1 9.4.3.2 0 1-.6 1.8-.6.7-.9 1.3-.5 1.3.3 0 .2 1-.3 2.3-.9 2.4-1.4 5-2.7 14.2-2.3 17.2-2.7 25.2-2.7 53.5 0 28.2.7 44.2 2.8 62 1.1 9.6 4.5 23 5.8 23 .4 0 .5.4.2 1-.6 1 1.5 10 4.4 19 1 3 2.6 8 3.6 11s2.4 6.8 3.1 8.5c.7 1.6 2.7 6.8 4.5 11.5 1.7 4.7 3.5 8.9 3.9 9.5.4.5 1.3 2.8 2 5 2.4 7.4 21.3 41.6 26 47 .9 1.1 2.6 3.6 3.6 5.5s2.1 3.7 2.4 4c1.2 1.1 9.7 13.2 12 17 1.4 2.3 4.5 6.3 7 9 2.5 2.6 9.2 9.8 15 16 5.8 6.3 12.3 13.2 14.5 15.5 3.5 3.6 23.2 20.6 35.5 30.5 2.3 1.9 4.9 4.1 5.6 4.7.7.7 1.5 1.3 1.8 1.3.3 0 3.1 1.9 6.2 4.2 3.1 2.4 6 4.3 6.3 4.3.7.1 6.3 3.6 7.1 4.5.3.3 2.1 1.4 4.1 2.3 2 .9 4.2 2.3 4.9 3.2.7.8 1.9 1.5 2.6 1.5.8 0 1.4.4 1.4 1 0 .5.5 1 1.1 1 .6 0 2.4.9 4 2.1 1.6 1.1 2.9 1.7 2.9 1.2 0-.4.4-.4.8.2 1.5 2.1 20.4 11.5 23.1 11.5 1.3 0 2.1-.7 2.2-1.8.4-6.5.4-13.4-.1-14-.3-.4-4.4-2.7-9.2-5.2-4.9-2.5-8.8-4.8-8.8-5.1 0-.4-.8-.9-1.7-1.2-1.8-.6-7.3-3.7-8.3-4.7-.3-.3-1.8-1.2-3.5-2-1.6-.8-3.2-1.7-3.5-2-.3-.3-2.7-1.9-5.5-3.5-6.3-3.6-13.8-9-18.2-13.3-1.3-1.2-2.7-2.2-3.1-2.2-.7 0-4.9-3.5-10.4-8.5-1.4-1.4-2.9-2.5-3.2-2.5-.9 0-11.2-9.6-23.1-21.5-9.6-9.6-15-15.4-23.5-25.5-1.2-1.4-3.5-4-5.1-5.7-1.6-1.8-2.7-3.3-2.4-3.3.3 0-1.2-2.4-3.3-5.3-2.1-2.8-6.5-9.3-9.7-14.2-3.3-5-6.4-9.3-7-9.7-.7-.5-.7-.8 0-.8s.7-.3 0-.8c-1.1-.8-1.6-1.5-8.3-13.7-6.7-12-12.5-24-16.1-33.5-1.8-4.7-4.3-11-5.4-14-1.2-3-2.2-5.7-2.3-6-.5-2.9-1.9-6.7-2.7-7.8-.5-.6-.6-1.2-.2-1.2.4 0 .2-.7-.5-1.5s-1-1.5-.7-1.5c.3 0-.2-2.1-1-4.8-.8-2.6-2.4-8.1-3.5-12.2-3.7-14.5-6-25.3-7.3-34.5-2.3-17.2-2.3-80.8.1-92.9.2-1.1.6-3.8.9-6 .3-2.1 1.2-6.8 2.1-10.5.8-3.6 1.7-7.7 1.9-9.1.6-3.5 5.1-20 7.6-27.3 1.1-3.4 2.2-6.9 2.4-7.7.2-.8 1.5-4.7 3-8.5 1.4-3.9 3.8-10.2 5.2-14 3.5-9.8 19.5-41.9 21.4-43.1.5-.3.9-1.4.9-2.4s.4-2 .8-2.2c.5-.2 5.4-7.1 11-15.3 11.6-17.2 10.2-15.3 16.7-23 12-14.4 24.8-28.1 35.2-37.5 12.2-11.1 14.4-13 15.3-13 .6 0 1-.3 1-.8 0-.4 2.6-2.7 5.8-5.2 3.1-2.4 5.9-4.8 6-5.2.2-.4.8-.8 1.3-.8.6 0 2-.9 3.2-2.1 5.5-5.1 32-21.8 47.7-30.1 4.1-2.2 8-4.4 8.5-4.8.6-.5 1.3-.9 1.7-.9.5-.1 3.6-1.4 7-3 3.5-1.6 8.8-3.9 11.8-5.1 3-1.2 6.9-2.9 8.7-3.6 1.7-.8 3.8-1.4 4.6-1.4.9 0 1.8-.4 2.1-.9.3-.4 2.7-1.4 5.3-2.1 2.7-.7 5.3-1.6 5.8-2 .8-.6 13.7-4.8 17-5.6.6-.2 2.5-.7 4.3-1.3 1.7-.5 3.2-.7 3.2-.4 0 .3.6.1 1.3-.5.6-.5 4.7-1.8 9-2.8 5.4-1.2 7.7-2.2 7.8-3.3.3-3.2 0-12.8-.6-17.9-.7-5.4-1-5.7-6-4.5zM408.2 224c0 1.4.2 1.9.5 1.2.2-.6.2-1.8 0-2.5-.3-.6-.5-.1-.5 1.3z"/><path d="M335.6 238.7c-1.2 3.8-1.9 21.9-4.1 105.8-1.3 45.6-1.3 50.5-.6 50.5.4 0 .7-1 .7-2.3.1-1.2.4-9.2.8-17.7.5-8.5 1-19.8 1.1-25 .2-5.2.7-17.8 1.1-28 .4-10.2.7-23.6.8-29.7.1-6.2.5-11.3.9-11.3s.3-.8-.2-1.9c-.6-1-.8-2.1-.4-2.4.7-.7 1.6-39.7.9-39.7-.2 0-.7.8-1 1.7zM763 281.7c0 .7.3 1.3.8 1.3.4 0 1.8 1.8 3.2 4 1.4 2.2 2.8 4 3.2 4 .4 0 1 .9 1.3 2 .3 1.1 1.2 2.6 1.8 3.2.7.7 2.4 2.9 3.7 4.8 1.3 1.9 2.8 3.9 3.2 4.5 1.7 2 5.8 8.6 7.3 11.5l1.5 2.9-5.2 4.2c-6 4.7-13.4 10.8-15.4 12.6-.7.7-1.5 1.3-1.9 1.3-.4 0-1.4.7-2.2 1.6-.9.9-4 3.4-7 5.6-2.9 2.2-5.3 4.4-5.3 4.9s-.5.9-1.1.9c-.6 0-2.8 1.5-4.8 3.2-2.1 1.8-5.5 4.6-7.6 6.3-2.1 1.6-4.4 3.6-5.1 4.2-.7.7-1.7 1.3-2.3 1.3-.6 0-1.1.4-1.1.8 0 .5-1.9 2.3-4.2 4-2.4 1.7-5.6 4.2-7.3 5.6-1.6 1.4-4.1 3.3-5.4 4.3-1.3 1-3.1 2.6-3.9 3.5-.9 1-2 1.8-2.4 1.8-.5 0-1.6.8-2.6 1.7-1 1-3.5 3.1-5.6 4.8-2.1 1.6-10 7.9-17.5 14-7.5 6-15.2 12.1-17 13.5-1.8 1.4-3.8 3-4.4 3.5-2 1.7-12.1 10-13.2 10.7-.5.4-2.2 1.8-3.7 3-1.4 1.3-3.6 3-4.8 3.8-1.3.8-4.1 3.2-6.4 5.2-2.2 2.1-4.4 3.8-4.8 3.8-.5 0-1.6.8-2.7 1.7-1 1-3.6 3.2-5.7 4.9-11.1 9.1-14.8 12-16.2 12.9-.8.5-2.3 1.7-3.2 2.5-2.4 2.2-5.9 5.1-11 9-2.5 1.9-5 3.9-5.6 4.5-3.9 3.5-6.5 5.5-7.3 5.5-.5 0-1.1.4-1.3.8-.1.4-4.1 3.8-8.8 7.6-4.7 3.7-9.2 7.3-10 7.9-6.9 5.5-11.6 9.3-12 9.7-.3.3-2.7 2.3-5.5 4.5-2.7 2.1-5.2 4.2-5.5 4.5-.3.3-2.9 2.3-5.7 4.5-2.9 2.1-5.3 4.3-5.3 4.7 0 .4-.4.8-1 .8-.9 0-3 1.5-6.4 4.5-1 .9-7.6 6.2-12.9 10.5-4 3.1-8.9 8-8.2 8 .8 0 11.2-7.5 13-9.4.6-.6 3.9-3.3 7.5-6 3.6-2.8 6.9-5.3 7.5-5.8.5-.4 4.4-3.4 8.5-6.6 28.1-21.9 29.6-23.1 33.3-26.5 1.7-1.5 3.5-2.7 3.9-2.7.4 0 2-1.1 3.5-2.5 1.6-1.3 7.8-6.3 13.8-11 6.1-4.8 12.6-9.9 14.5-11.5 1.9-1.6 6.9-5.5 11.1-8.7 4.2-3.3 8.4-6.7 9.3-7.6 1-.9 2-1.7 2.4-1.7.4 0 2.1-1.3 3.9-2.8 1.7-1.5 5.4-4.5 8.3-6.7 11-8.5 28.3-22.2 30.4-24 .6-.6 3.1-2.6 5.6-4.5 2.5-1.9 5-3.9 5.6-4.5.6-.5 2.6-2.1 4.4-3.5 5.5-4.1 9.5-7.5 9.8-8.3.2-.4.8-.7 1.3-.7.8 0 2.1-.9 7.2-5.4 1.2-1 3.8-3 5.7-4.5 1.9-1.4 3.7-2.8 4-3.1.3-.3 3.7-3 7.5-6 3.9-3 7.2-5.7 7.5-6 .3-.3 3.4-2.8 7-5.5s6.7-5.2 7-5.5c.3-.3 7.5-6.1 16-12.8 8.5-6.7 17.2-13.7 19.3-15.6 2-1.8 3.7-3.1 3.7-2.9 0 .2.6-.2 1.3-.9.8-.7 3.1-2.7 5.2-4.3 8.1-6.4 10.2-10 8.6-14.7-1.1-3-7-12.1-8.3-12.6-.4-.2-.8-1-.8-1.7s-.4-1.5-.8-1.7c-.5-.2-2.4-2.3-4.3-4.8-3.3-4.3-4.3-5.6-10.3-12.5-1.4-1.7-2.6-2.4-2.6-1.8zM330 405.2c0 5 .2 8.9.4 8.7.8-.8 1.2-17.9.4-17.9-.4 0-.8 4.1-.8 9.2zM329.7 416.5c-.4.8-.3 1.6.1 1.9.4.3.9-.4.9-1.5.2-2.3-.3-2.5-1-.4zM438.9 672.1c0 .8-.2 2.2-.4 3.1-.2.9-.6 7.5-1 14.5-.3 7-.8 15.9-1 19.8-.5 8.8-1.5 30-2 43-.2 5.5-.4 10-.5 10-.1 0-.9 16.6-1.4 31.2-.3 6.2-.7 11.7-1.1 12.3-.3.5-.1 1 .5 1s.8.5.4 1.2c-.4.6-.8 3.4-1 6.2-1 23.3-1.5 32.3-2 33.8-.5 1.6-2.7 1.7-28.7 1.2-15.5-.3-38.7-.6-51.4-.7-12.8-.1-23.3-.4-23.3-.7 0-.3-1.2-.5-2.7-.4-1.6.1-3.3.3-3.9.3-2.4.2-2.1 2.9.7 6.1 1.6 1.8 2.9 2.9 2.9 2.5 0-.4.6-.3 1.3.2.6.5 2.1.9 3.2.8 1.1 0 3 .3 4.3.7 1.2.4 2.2.4 2.2 0s1.9-.8 4.3-.8c2.3-.1 6.5-.5 9.2-.8 5.4-.7 15-1.3 37.5-2.1 39.4-1.4 44.7-2.1 49.8-6.6l3.4-3 9.6.6c5.4.4 12.6.8 16.2 1 9.1.6 44.9.6 60.5.1 18.8-.7 27.4-1.5 32.7-3.2 7.1-2.3 8.7-1.7 14.3 5.5 2.7 3.6 6.9 8.4 9.2 10.9l4.2 4.4 16.8-.6c16.4-.7 21.6-1 35.8-2 3.9-.3 10.2-.8 14-1 3.9-.3 9.9-.7 13.5-1.1 3.6-.3 9.7-.8 13.5-1 3.9-.2 10.6-.7 15-1.1 4.4-.3 9.2-.6 10.8-.7 1.5 0 2.7-.3 2.7-.6 0-.4 1.2-.7 2.8-.7 7.1-.3 8.3-.6 10.9-2.9 2.3-2 2.5-2.6 1.4-3.4-.8-.5-2.4-.7-3.7-.5-1.3.2-4.7.6-7.6.9-2.9.2-8.2.7-11.8 1.1-3.6.3-7.8.7-9.5.9-1.6.1-3 .3-3 .5 0 .1-1.3.3-3 .4-2.9.3-15.6 1.5-22 2.2-1.6.1-5.7.5-9 .8-3.3.3-7.6.8-9.5 1.1-1.9.2-6 .7-9 1-7.6.8-13.6 1.4-19.5 2.1-2.7.3-7 .7-9.5.9-2.5.1-7.7.6-11.7 1-6.7.6-7.3.5-9.5-1.7-2.6-2.7-12-14.4-16.4-20.3-1.6-2.2-3.1-4.2-3.4-4.5-.3-.3-2.5-3.1-4.8-6.2-2.4-3.1-5.1-6.3-6-7-.9-.7-.6-.1.6 1.4 3.1 3.4 4.3 3.1-21.3 6.5-7.5 1-68.5 1.1-78 .1-9-1-11.6-1.4-13.8-2.3-1.6-.7-1.7-3.9-1.7-52.9 0-28.6 0-52.6-.1-53.1-.1-.6-.1-1.4 0-1.9s.4-9.9.6-21c.2-11 .4-20.2.5-20.4.2-.1.3-.7.4-1.2 0-.6.7-1.4 1.4-1.9.9-.6.8-1.2-.8-2.6-1.5-1.4-2-1.5-2.1-.4z"/></svg>