<svg width="679" height="328" viewBox="0 0 679 328" fill="none" xmlns="http://www.w3.org/2000/svg">
<path d="M160.311 93L461.811 74L448.811 154.5L278.811 182L160.311 151V93Z" fill="#0D0011"/>
<path d="M435.732 163.424L360.111 152.552L346.518 194.492L406.385 209.127L413.31 250.068L435.748 293.421L465.691 310.786L513.877 292.565L526.396 252.913L471.816 265.806L464.094 263.451L452.444 232.463L435.732 163.424Z" fill="#541F6C"/>
<g filter="url(#filter0_f)">
<circle cx="351.811" cy="135.5" r="12.5" fill="#FF0101"/>
</g>
<g filter="url(#filter1_f)">
<circle cx="376.811" cy="135.5" r="12.5" fill="#FF0101"/>
</g>
<path d="M235.109 16.6082L289.109 34.108L401.609 24.3982L445.109 2.60801L492.109 82.6081L443.109 102.608L292.609 119.608L237.609 114.608L235.109 16.6082Z" fill="#F801FF"/>
<path d="M163.609 82.1082L179.609 44.6082L190.109 47.1082L218.609 38.1082L235.079 16.6081L237.609 114.608L218.609 126.108L190.109 137.108L153.609 97.1082L163.609 82.1082Z" fill="#22004C"/>
<path d="M319.311 25.8208L343.811 28L368.311 24L392.311 88.5L373.311 99L333.311 88.5L319.311 25.8208Z" fill="#0ED1A7"/>
<path d="M307.311 33.4998L319.311 25.5L333.311 88L325.311 86L314.811 33.4999L307.311 33.4998Z" fill="#310EA0"/>
<path d="M312.311 82.5L372.811 98.5L421.311 74L429.311 101.5L378.311 128L318.311 110.5L312.311 82.5Z" fill="#243429"/>
<path d="M306.311 82.5H312.311L318.811 110.5H312.311L306.311 82.5Z" fill="#070004"/>
<path d="M312.311 110.5H318.811L377.811 128L312.311 110.5Z" fill="#070004"/>
<path d="M85.6553 138.926L160.81 99.9996L190.31 138.926L133.009 176.049L140.681 221.404L133 274.935L107.999 304.011L50.949 302.504L23.4056 265.581L85.2044 259.185L92.4253 253.907L93.3236 217.244L85.6553 138.926Z" fill="#541F6C"/>
<path d="M160.311 145L244.311 156.5L263.311 248.5L192.311 231L160.311 145Z" fill="#22004C"/>
<path d="M165.354 133.829L229.429 111L264 121L286.5 154.714L246 158L237.5 151.5L229.429 154.714L199.819 173.171L182.344 231.943L160.985 286.829L124.094 307.229L77.9792 315L44 290.229L92.5417 280.029L124.094 262.543L149.335 201.343L165.354 133.829Z" fill="#FF8FEA"/>
<path d="M243.311 156.5L371.311 150L486.311 131.5L476.311 176.5L466.311 224.5L375.311 241.5L263.311 249L243.311 156.5Z" fill="#F801FF"/>
<path d="M538 122.5L513 97L476.062 92L431.969 104.743L430 139.786L451 137L481 133.5L508.469 159.962L527.594 224.207L550.969 284.205L591.344 306.505L641.812 315L679 287.921L625.875 276.771L591.344 257.657L563.719 190.757L538 122.5Z" fill="#FF8FEA"/>
<path d="M351.811 147.5L365.811 152.5L382.311 143.5V160.5L376.811 177L361.311 179.5L355.311 164.5L351.811 147.5Z" fill="#243429"/>
<path d="M349.917 149.5L352.573 148L355.311 164L361.311 179.5H358.811L352.573 165.5L349.917 149.5Z" fill="#070004"/>
<defs>
<filter id="filter0_f" x="335.311" y="119" width="33" height="33" filterUnits="userSpaceOnUse" color-interpolation-filters="sRGB">
<feFlood flood-opacity="0" result="BackgroundImageFix"/>
<feBlend mode="normal" in="SourceGraphic" in2="BackgroundImageFix" result="shape"/>
<feGaussianBlur stdDeviation="2" result="effect1_foregroundBlur"/>
</filter>
<filter id="filter1_f" x="360.311" y="119" width="33" height="33" filterUnits="userSpaceOnUse" color-interpolation-filters="sRGB">
<feFlood flood-opacity="0" result="BackgroundImageFix"/>
<feBlend mode="normal" in="SourceGraphic" in2="BackgroundImageFix" result="shape"/>
<feGaussianBlur stdDeviation="2" result="effect1_foregroundBlur"/>
</filter>
</defs>
</svg>
