<svg width="702" height="430" viewBox="0 0 702 430" fill="none" xmlns="http://www.w3.org/2000/svg">
<path d="M464.732 265.424L389.111 254.552L375.518 296.492L435.385 311.127L442.31 352.068L464.748 395.421L494.691 412.786L542.877 394.565L555.396 354.913L500.816 367.806L493.094 365.451L481.444 334.463L464.732 265.424Z" fill="#541F6C"/>
<path d="M160.311 191L461.811 172L448.811 252.5L278.811 280L160.311 249V191Z" fill="#0D0011"/>
<g filter="url(#filter0_f)">
<circle cx="352.5" cy="227.5" r="12.5" fill="#FF0101"/>
</g>
<g filter="url(#filter1_f)">
<circle cx="377.5" cy="227.5" r="12.5" fill="#FF0101"/>
</g>
<path d="M233.799 98.6084L287.798 116.108L400.298 106.398L443.798 84.6083L490.798 164.608L441.798 184.608L291.298 201.608L236.299 196.608L233.799 98.6084Z" fill="#F801FF"/>
<path d="M162.298 164.108L178.298 126.608L188.798 129.108L217.298 120.108L233.768 98.6083L236.298 196.608L217.298 208.108L178.298 223L156 190L162.298 164.108Z" fill="#22004C"/>
<path d="M318 107.821L342.5 110L367 106L391 170.5L372 181L332 170.5L318 107.821Z" fill="#0ED1A7"/>
<path d="M306 115.5L318 107.5L332 170L324 168L313.5 115.5L306 115.5Z" fill="#310EA0"/>
<path d="M311 164.5L371.5 180.5L420 156L428 183.5L377 210L317 192.5L311 164.5Z" fill="#243429"/>
<path d="M305 164.5H311L317.5 192.5H311L305 164.5Z" fill="#070004"/>
<path d="M311 192.5H317.5L376.5 210L311 192.5Z" fill="#070004"/>
<path d="M85.6553 236.926L160.81 198L190.31 236.926L133.009 274.049L140.681 319.404L133 372.935L107.999 402.011L50.949 400.504L23.4056 363.581L85.2044 357.185L92.4253 351.907L93.3236 315.244L85.6553 236.926Z" fill="#541F6C"/>
<path d="M160.311 243L244.311 254.5L263.311 346.5L192.311 329L160.311 243Z" fill="#22004C"/>
<path d="M165.354 231.829L229.429 209L264 219L286.5 252.714L246 256L237.5 249.5L229.429 252.714L199.819 271.171L182.344 329.943L160.985 384.829L124.094 405.229L77.9792 413L44 388.229L92.5417 378.029L124.094 360.543L149.335 299.343L165.354 231.829Z" fill="#FF8FEA"/>
<path d="M243.311 254.5L371.311 248L486.311 229.5L476.311 274.5L466.311 322.5L375.311 339.5L263.311 347L243.311 254.5Z" fill="#F801FF"/>
<path d="M479.413 145.09L448.311 162.638L433.922 197.023L421.5 240L470.902 232.878L475.285 202.994L507.955 183.311L574.961 181.465L638.964 174.415L670.954 141.187L692.222 94.6372L675.691 51.7083L651.171 100.137L623.771 128.545L552.001 137.914L479.413 145.09Z" fill="#FF8FEA"/>
<path d="M351.811 245.5L365.811 250.5L382.311 241.5V258.5L376.811 275L361.311 277.5L355.311 262.5L351.811 245.5Z" fill="#243429"/>
<path d="M349.917 247.5L352.573 246L355.311 262L361.311 277.5H358.811L352.573 263.5L349.917 247.5Z" fill="#070004"/>
<defs>
<filter id="filter0_f" x="336" y="211" width="33" height="33" filterUnits="userSpaceOnUse" color-interpolation-filters="sRGB">
<feFlood flood-opacity="0" result="BackgroundImageFix"/>
<feBlend mode="normal" in="SourceGraphic" in2="BackgroundImageFix" result="shape"/>
<feGaussianBlur stdDeviation="2" result="effect1_foregroundBlur"/>
</filter>
<filter id="filter1_f" x="361" y="211" width="33" height="33" filterUnits="userSpaceOnUse" color-interpolation-filters="sRGB">
<feFlood flood-opacity="0" result="BackgroundImageFix"/>
<feBlend mode="normal" in="SourceGraphic" in2="BackgroundImageFix" result="shape"/>
<feGaussianBlur stdDeviation="2" result="effect1_foregroundBlur"/>
</filter>
</defs>
</svg>
