<svg width="73" height="72" viewBox="0 0 73 72" fill="none" xmlns="http://www.w3.org/2000/svg">
<path d="M35.8534 2C16.61 2 1.88983 16.8114 1.88983 36.3214C1.88983 51.9208 11.5738 65.2693 25.4063 69.9676C27.1822 70.2911 27.8065 69.1798 27.8065 68.2654C27.8065 67.3933 27.765 62.5825 27.765 59.6291C27.765 59.6291 18.0531 61.7389 16.0136 55.4371C16.0136 55.4371 11.4978 49.8077 9.22241 48.7527C9.22241 48.7527 6.04523 45.6771 9.44456 45.7193C9.44456 45.7193 15.8335 46.0716 17.7341 49.4193C20.7725 54.8489 25.8642 53.2876 27.8482 52.3591C28.1673 50.1085 29.0692 48.1645 30.0681 47.2361C22.3126 46.364 14.4875 47.1172 14.4875 33.5859C14.4875 29.7177 15.5419 27.5331 17.7619 25.0574C17.4013 24.1431 16.222 20.3735 18.1228 15.5065C21.0225 14.5922 27.6956 19.3044 27.6956 19.3044C30.4707 18.5166 33.4535 18.1088 36.4085 18.1088C39.364 18.1088 42.3467 18.5166 45.1213 19.3044C45.1213 19.3044 51.7952 14.5781 54.6946 15.5065C56.5952 20.3873 55.4161 24.1431 55.0554 25.0574C57.2754 27.5472 58.6348 29.7317 58.6348 33.5859C58.6348 47.1597 50.463 48.6826 42.7077 49.5687C43.9839 50.6798 45.066 53.1728 45.066 56.4783C45.066 61.2184 45.0247 67.0842 45.0247 68.2373C45.0247 69.1516 45.6627 70.2629 47.4247 69.9395C61.2988 65.2696 70.7052 51.9209 70.7052 36.3217C70.7049 16.8114 55.0967 2 35.8534 2Z" stroke="white" stroke-width="3" stroke-miterlimit="10" stroke-linecap="round" stroke-linejoin="round"/>
</svg>
